HIERARCHY
ROOT Hips
{
	OFFSET 0.000000 0.000000 0.000000 
	CHANNELS 6 Xposition Yposition Zposition Yrotation Zrotation Xrotation 
	JOINT Lumbar
	{
		OFFSET 0.000000 0.000000 0.000000 
		CHANNELS 3 Zrotation Xrotation Yrotation
		JOINT Neck
		{
			OFFSET 0.000000 0.445665 0.000000 
			CHANNELS 3 Zrotation Xrotation Yrotation
			End Site
			{
				OFFSET 0.000000 0.227535 0.000000 
			}
		}
		JOINT RightShoulder
		{
			OFFSET 0.019635 0.377685 0.194865 
			CHANNELS 3 Zrotation Xrotation Yrotation
			JOINT RightElbow
			{
				OFFSET 0.000000 -0.243375 0.000000 
				CHANNELS 2 Zrotation Yrotation
				JOINT RightWrist
				{
					OFFSET 0.000000 -0.264825 0.000000 
					CHANNELS 2 Zrotation Xrotation
					End Site
					{
						OFFSET 0.006600 -0.176220 0.000990 
					}
				}
			}
		}
		JOINT LeftShoulder
		{
			OFFSET 0.019635 0.377685 -0.194865 
			CHANNELS 3 Zrotation Xrotation Yrotation
			JOINT LeftElbow
			{
				OFFSET 0.000000 -0.243375 0.000000 
				CHANNELS 2 Zrotation Yrotation
				JOINT LeftWrist
				{
					OFFSET 0.000000 -0.264825 0.000000 
					CHANNELS 2 Zrotation Xrotation
					End Site
					{
						OFFSET 0.006600 -0.176220 -0.000990 
					}
				}
			}
		}
	}
	JOINT RightHip
	{
		OFFSET 0.052140 -0.069960 0.075570 
		CHANNELS 3 Zrotation Xrotation Yrotation
		JOINT RightKnee
		{
			OFFSET 0.000000 -0.402270 0.000000 
			CHANNELS 1 Zrotation
			JOINT RightAnkle
			{
				OFFSET 0.000000 -0.404085 0.000000 
				CHANNELS 3 Zrotation Xrotation Yrotation
				End Site
				{
					OFFSET 0.204105 -0.089430 0.008415 
				}
			}
		}
	}
	JOINT LeftHip
	{
		OFFSET 0.052140 -0.069960 -0.075570 
		CHANNELS 3 Zrotation Xrotation Yrotation
		JOINT LeftKnee
		{
			OFFSET 0.000000 -0.402270 0.000000 
			CHANNELS 1 Zrotation
			JOINT LeftAnkle
			{
				OFFSET 0.000000 -0.404085 0.000000 
				CHANNELS 3 Zrotation Xrotation Yrotation
				End Site
				{
					OFFSET 0.204105 -0.089430 -0.008415 
				}
			}
		}
	}
}
MOTION
Frames: 16
Frame Time: 0.02
0.02121 0.01894 0.06867 49.86515 -48.41319 -7.66882 34.65199 6.57397 -4.97509 27.66032 -21.3296 -2.11993 150.1582 15.16112 52.12386 32.33471 77.18225 27.93392 -3.92504 122.34043 -2.50304 -53.16366 65.85601 -60.68045 55.18723 4.77761 64.77864 -3.1316 -12.37842 -17.03833 -8.18315 -1.75273 -3.16691 67.94908 2.52717 9.08658 -23.51505 -8.67411 0.76926 2.7125
0.02176 0.01891 0.06862 49.45015 -48.76294 -7.74492 34.6408 6.54108 -4.95971 27.49002 -21.73433 -2.11993 150.11308 14.99802 51.82272 33.07162 75.97876 30.00766 -3.88386 122.69552 -2.01944 -53.19682 67.13643 -59.46839 54.89129 4.89878 65.18932 -3.03087 -12.10749 -17.01773 -8.17023 -1.72897 -3.155 68.3038 2.67441 9.3059 -23.50198 -8.66547 0.76424 2.71105
0.02224 0.01881 0.06874 49.0549 -49.04293 -7.82504 34.62411 6.49493 -4.88195 27.23846 -22.09376 -2.11993 150.02228 14.83832 51.63911 33.16495 75.06337 32.03314 -3.96702 123.22169 -1.77244 -53.15869 67.09839 -58.57906 54.40681 4.99719 65.58458 -2.91089 -11.62767 -17.06808 -8.15894 -1.72507 -3.15277 68.62569 2.85078 9.61618 -23.53808 -8.65906 0.74226 2.70197
0.02274 0.01874 0.0688 48.65745 -49.35117 -7.90309 34.60789 6.45605 -4.83077 27.02952 -22.46687 -2.11993 149.9467 14.67828 51.40396 33.55015 74.03834 34.02188 -3.98573 123.66846 -1.42274 -53.15508 67.63652 -57.56071 54.0078 5.10475 65.98256 -2.8014 -11.25477 -17.0866 -8.14679 -1.71234 -3.14624 68.95808 3.00962 9.86911 -23.55404 -8.65047 0.72992 2.69714
0.02328 0.01869 0.06881 48.22778 -49.67455 -7.98361 34.59979 6.41116 -4.78546 26.79925 -22.86955 -2.11993 149.88688 14.50128 51.15321 33.94706 72.90423 36.26549 -4.01751 124.1318 -1.03424 -53.14978 68.27858 -56.46462 53.5934 5.21784 66.4008 -2.68454 -10.83497 -17.10537 -8.13486 -1.69822 -3.13908 69.30603 3.18768 10.18599 -23.56998 -8.64444 0.71096 2.68962
0.02373 0.01858 0.06896 47.87176 -49.94874 -8.05936 34.57371 6.37575 -4.71417 26.59254 -23.19818 -2.11993 149.78773 14.36499 50.96735 34.15843 72.07568 37.96514 -4.06573 124.59736 -0.7901 -53.12998 68.38254 -55.60508 53.17358 5.31404 66.77125 -2.57846 -10.46219 -17.13953 -8.12297 -1.69186 -3.13557 69.61393 3.33245 10.39365 -23.59412 -8.63452 0.70103 2.68559
0.02393 0.01835 0.06943 47.70856 -50.11436 -8.12115 34.49894 6.37195 -4.58093 26.47712 -23.35093 -2.11993 149.57303 14.33838 50.91327 34.07388 71.98243 38.16055 -4.04608 125.03075 -0.88243 -53.06592 67.39164 -55.36475 52.77048 5.36611 67.02688 -2.50685 -10.2654 -17.20114 -8.11092 -1.70318 -3.14032 69.83174 3.3749 10.26438 -23.62812 -8.61335 0.72188 2.6938
0.02406 0.01807 0.07003 47.6202 -50.23087 -8.17773 34.40659 6.37778 -4.4249 26.38661 -23.42667 -2.11993 149.32419 14.35352 50.92477 33.81348 72.19139 37.81175 -4.05219 125.45908 -1.11452 -52.99212 65.88943 -55.34691 52.37209 5.40216 67.23217 -2.44679 -10.12335 -17.2752 -8.09888 -1.72154 -3.14836 70.00844 3.38304 10.0241 -23.66749 -8.5885 0.75198 2.70562
0.02422 0.01783 0.07056 47.50194 -50.36342 -8.23641 34.32237 6.37801 -4.28303 26.28039 -23.52764 -2.11993 149.10418 14.35397 50.9193 33.59418 72.29532 37.71993 -4.10762 125.88528 -1.28896 -52.93606 64.57962 -55.19496 51.98464 5.44781 67.45182 -2.38137 -9.95902 -17.34163 -8.08683 -1.73604 -3.15457 70.19669 3.40914 9.84453 -23.70358 -8.5657 0.7764 2.71516
0.02437 0.01755 0.07114 47.36745 -50.52067 -8.29653 34.23659 6.38329 -4.12284 26.1904 -23.6723 -2.11993 148.82778 14.34099 50.86361 33.51558 72.29225 37.5853 -3.92533 126.33384 -1.44961 -52.82282 63.40283 -55.18132 51.53993 5.48407 67.70755 -2.31558 -9.77695 -17.41845 -8.07488 -1.75394 -3.16246 70.41475 3.42725 9.62787 -23.74513 -8.54145 0.80608 2.72694
0.02454 0.01732 0.07164 47.28367 -50.61492 -8.35215 34.15092 6.38006 -3.99628 26.07297 -23.70319 -2.11993 148.65944 14.35991 50.9266 33.11151 72.55545 37.41184 -4.22285 126.73545 -1.66534 -52.82556 61.83182 -54.94347 51.2121 5.53492 67.87556 -2.25378 -9.647 -17.47619 -8.06265 -1.76628 -3.16757 70.56027 3.45229 9.45704 -23.77587 -8.5192 0.82774 2.73527
0.0248 0.01724 0.07194 47.32672 -50.55406 -8.3983 34.06223 6.35503 -3.96832 25.87901 -23.48192 -2.11993 148.81257 14.5056 51.30042 31.84934 73.69672 37.25611 -6.01323 126.97846 -2.02622 -53.16551 59.42295 -53.89843 51.25565 5.64298 67.81994 -2.19796 -9.65305 -17.47313 -8.04997 -1.76042 -3.16358 70.52479 3.51532 9.47554 -23.7751 -8.50447 0.82017 2.73096
0.02509 0.01723 0.07215 47.41703 -50.43033 -8.43978 33.97595 6.32043 -3.97542 25.65591 -23.14083 -2.11993 149.0716 14.67094 51.79055 30.27175 75.05782 37.08026 -8.25501 127.17733 -2.42789 -53.61995 56.62486 -52.64202 51.40608 5.76428 67.67628 -2.14614 -9.70968 -17.45094 -8.03691 -1.74883 -3.15673 70.41572 3.58489 9.53872 -23.76305 -8.49171 0.80499 2.72343
0.02539 0.01719 0.07237 47.4824 -50.33152 -8.48222 33.89333 6.28759 -3.96648 25.4431 -22.82673 -2.11993 149.27469 14.79767 52.22798 28.84037 76.16944 36.9212 -10.17206 127.41764 -2.79648 -54.01303 53.92073 -51.5702 51.47882 5.87073 67.5694 -2.09416 -9.74062 -17.44053 -8.0238 -1.74048 -3.15151 70.33501 3.64385 9.55531 -23.75612 -8.4773 0.79679 2.71899
0.0256 0.01712 0.07271 47.56556 -50.2473 -8.52924 33.78909 6.26592 -3.95656 25.2438 -22.62649 -2.11993 149.51583 15.05898 52.66895 27.3806 77.9062 36.71727 -12.58456 127.57511 -3.24628 -54.44596 51.52048 -50.13835 51.68388 6.01263 67.47606 -2.036 -9.78477 -17.41784 -8.01166 -1.72967 -3.14501 70.27614 3.73191 9.67154 -23.74946 -8.46583 0.77484 2.70817
0.026 0.01712 0.07277 47.62122 -50.11725 -8.56585 33.73183 6.21871 -3.95808 25.00887 -22.16087 -2.11993 149.69544 15.03429 53.12697 25.91966 78.41051 36.60104 -14.08502 127.8853 -3.5162 -54.82216 48.43621 -49.396 51.62694 6.08561 67.33217 -1.99095 -9.81271 -17.41567 -7.99735 -1.72256 -3.14045 70.15253 3.7638 9.60171 -23.73945 -8.44889 0.77857 2.70935
